# AST/ASF file generated using VICON BodyLanguage
# -----------------------------------------------
:version 1.10
:name VICON
:units
  mass 1.0
  length 0.45
  angle deg
:documentation
   .ast/.asf automatically generated from VICON data using
   VICON BodyBuilder and BodyLanguage model FoxedUp or BRILLIANT.MOD
:root
   order TX TY TZ RX RY RZ
   axis XYZ
   position 0 0 0  
   orientation 0 0 0 
:bonedata
  begin
     id 1 
     name lhipjoint
     direction 0.653368 -0.678499 0.335782 
     length 2.51848 
     axis 0 0 0  XYZ
  end
  begin
     id 2 
     name lfemur
     direction 0.34202 -0.939693 0  
     length 6.57749  
     axis 0 0 20  XYZ
    dof rx ry rz
    limits (-160.0 20.0)
           (-70.0 70.0)
           (-60.0 70.0)
  end
  begin
     id 3 
     name ltibia
     direction 0.34202 -0.939693 0   
     length 7.94618   
     axis 0 0 20   XYZ
    dof rx
    limits (-10.0 170.0)
  end
  begin
     id 4 
     name lfoot
     direction 0.0811271 -0.222895 0.971461   
     length 2.31339   
     axis -90 7.62852e-016 20   XYZ
    dof rx rz
    limits (-45.0 90.0)
           (-70.0 20.0)
  end
  begin
     id 5 
     name ltoes
     direction 1.53568e-011 -4.21885e-011 1   
     length 1.15935   
     axis -90 7.62852e-016 20   XYZ
    dof rx
    limits (-90.0 20.0)
  end
  begin
     id 6 
     name rhipjoint
     direction -0.640058 -0.688614 0.340788   
     length 2.48149  
     axis 0 0 0  XYZ 
  end
  begin
     id 7 
     name rfemur
     direction -0.34202 -0.939693 0   
     length 6.57875   
     axis 0 0 -20   XYZ
    dof rx ry rz
    limits (-160.0 20.0)
           (-70.0 70.0)
           (-70.0 60.0)
  end
  begin
     id 8 
     name rtibia
     direction -0.34202 -0.939693 0   
     length 7.977   
     axis 0 0 -20   XYZ
    dof rx
    limits (-10.0 170.0)
 end
 begin
     id 9 
     name rfoot
     direction -0.0979793 -0.269196 0.958089   
     length 2.19857  
     axis -90 -7.62852e-016 -20   XYZ
    dof rx rz
    limits (-45.0 90.0)
           (-20.0 70.0)
  end
  begin
     id 10 
     name rtoes
     direction -1.53556e-011 -4.21868e-011 1   
     length 1.09838   
     axis -90 -7.62852e-016 -20   XYZ
    dof rx
    limits (-90.0 20.0)
  end
  begin
     id 11 
     name lowerback
     direction 0.0149039 0.998517 -0.0523597   
     length 2.10809   
     axis 0 0 0   XYZ
    dof rx ry rz
    limits (-20.0 45.0)
           (-30.0 30.0)
           (-30.0 30.0)
  end
  begin
     id 12 
     name upperback
     direction -0.00882659 0.999418 -0.0329624   
     length 2.1102   
     axis 0 0 0   XYZ
    dof rx ry rz
    limits (-20.0 45.0)
           (-30.0 30.0)
           (-30.0 30.0)
  end
  begin
     id 13 
     name thorax
     direction -0.0165585 0.999826 -0.0085833   
     length 2.11039   
     axis 0 0 0   XYZ
    dof rx ry rz
    limits (-20.0 45.0)
           (-30.0 30.0)
           (-30.0 30.0)
  end
  begin
     id 14 
     name lowerneck
     direction -0.0130877 0.999911 0.00260353   
     length 1.73253   
     axis 0 0 0   XYZ
    dof rx ry rz
    limits (-20.0 45.0)
           (-30.0 30.0)
           (-30.0 30.0)
  end
  begin
     id 15 
     name upperneck
     direction -0.0348454 0.928205 -0.370435   
     length 1.66692   
     axis 0 0 0   XYZ
    dof rx ry rz
    limits (-20.0 45.0)
           (-30.0 30.0)
           (-30.0 30.0)
  end
  begin
     id 16
     name head
     direction -0.00807754 0.992494 -0.122026  
     length 1.72765  
     axis 0 0 0   XYZ
    dof rx ry rz
    limits (-20.0 45.0)
           (-30.0 30.0)
           (-30.0 30.0)
  end
  begin
     id 17 
     name lclavicle
     direction 0.987582 0.144023 0.0627671  
     length 3.49235  
     axis 0 0 0   XYZ
    dof ry rz
    limits (-20.0 10.0)
           (0.0 20.0)
  end
  begin
     id 18 
     name lhumerus
     direction 1 -4.48958e-011 -1.45183e-018   
     length 5.41917   
     axis 180 -30 -90   XYZ
    dof rx ry rz
    limits (-60.0 90.0)
           (-90.0 90.0)
           (-90.0 90.0)
  end
  begin
     id 19
     name lradius
     direction 1 -4.48999e-011 5.75106e-027   
     length 2.44373   
     axis 180 -30 -90   XYZ
    dof rx
    limits (-10.0 170.0)
  end
  begin
     id 20
     name lwrist
     direction 1 -4.48987e-011 1.53461e-026   
     length 1.22186   
     axis -1.09697e-014 90 90   XYZ
    dof ry
    limits (-180.0 0.0)
 end
  begin
     id 21 
     name lhand
     direction 1 -4.48881e-011 3.06923e-026   
     length 0.727502   
     axis -1.95843e-014 90 90   XYZ
    dof rx rz
    limits (-90.0 90.0)
           (-45.0 45.0)
  end
  begin
     id 22 
     name lfingers
     direction 1 -4.48907e-011 6.13845e-026   
     length 0.586531   
     axis -3.91686e-014 90 90   XYZ
    dof rx
    limits (0.0 90.0)
  end
  begin
     id 23
     name lthumb
     direction 0.707107 -6.3487e-011 0.707107   
     length 0.842145   
     axis -90 45 2.85299e-015   XYZ
    dof rx rz
    limits (-45.0 45.0)
           (-45.0 45.0)
  end
  begin
     id 24 
     name rclavicle
     direction -0.980998 0.169556 0.0943023   
     length 3.29272  
     axis 0 0 0   XYZ 
    dof ry rz
    limits (-10.0 20.0)
           (-20.0 0.0)
  end
  begin
     id 25 
     name rhumerus
     direction -1 -1.83355e-005 2.45537e-005  
     length 5.58976   
     axis 180 30 90   XYZ
    dof rx ry rz
    limits (-90.0 60.0)
           (-90.0 90.0)
           (-90.0 90.0)
  end
  begin
     id 26 
     name rradius
     direction -1 -4.48967e-011 5.97228e-027   
     length 2.4806   
     axis 180 30 90   XYZ
    dof rx
    limits (-10.0 170.0)
  end
  begin
     id 27 
     name rwrist
     direction -1 -4.48963e-011 1.53461e-026   
     length 1.2403   
     axis -1.09697e-014 -90 -90   XYZ
    dof ry
    limits (-180.0 0.0)
  end
  begin
     id 28
     name rhand
     direction -1 -4.48881e-011 3.06923e-026   
     length 0.816009   
     axis -1.95843e-014 -90 -90   XYZ
    dof rx rz
    limits (-90.0 90.0)
           (-45.0 45.0)
  end
  begin
     id 29
     name rfingers
     direction -1 -4.49018e-011 6.13845e-026   
     length 0.657887   
     axis -3.91686e-014 -90 -90   XYZ
    dof rx
    limits (0.0 90.0)
  end
  begin
     id 30
     name rthumb
     direction -0.707107 -6.34872e-011 0.707107   
     length 0.944599   
     axis -90 -45 -2.85299e-015   XYZ
    dof rx rz
    limits (-45.0 45.0)
           (-45.0 45.0)
  end
:hierarchy
  begin
    root lhipjoint rhipjoint lowerback
    lhipjoint lfemur
    lfemur ltibia
    ltibia lfoot
    lfoot ltoes
    rhipjoint rfemur
    rfemur rtibia
    rtibia rfoot
    rfoot rtoes
    lowerback upperback
    upperback thorax
    thorax lowerneck lclavicle rclavicle
    lowerneck upperneck
    upperneck head
    lclavicle lhumerus
    lhumerus lradius
    lradius lwrist
    lwrist lhand lthumb
    lhand lfingers
    rclavicle rhumerus
    rhumerus rradius
    rradius rwrist
    rwrist rhand rthumb
    rhand rfingers
  end

#!OML:ASF F:\VICON\USERDATA\INSTALL\rory3\rory3.ASF
:FULLY-SPECIFIED
:DEGREES
23
root -3.06972 16.1493 -32.4136 25.8138 66.6809 16.5836
lowerback -5.21683 -2.10705 -3.59028
upperback -7.35987 -2.52702 1.36576
thorax -4.49532 -0.974082 3.38609
lowerneck -0.955267 -22.325 -17.091
upperneck 21.3294 -31.7086 9.12956
head 11.2429 -15.2865 1.42953
rclavicle 7.49418e-014 -2.38542e-015
rhumerus -15.3457 -73.4959 -2.70426
rradius 12.2539
rwrist 62.82
rhand -10.273 15.2919
rfingers 7.12502
rthumb 15.7207 -14.0895
lclavicle 7.49418e-014 -2.38542e-015
lhumerus -21.8277 15.1349 3.64637
lradius 17.2525
lwrist -49.3093
lhand 4.53473 26.3493
lfingers 7.12502
lthumb 29.9261 53.9499
rfemur -48.489 -24.2416 14.0199
rtibia 50.0979
rfoot -61.0784 -30.4268
rtoes 53.7865
lfemur -20.2311 4.0348 -19.7336
ltibia 45.7068
lfoot -12.1456 30.7315
ltoes -41.2942
24
root -3.04952 16.1624 -32.3193 25.4981 65.9989 15.702
lowerback -5.60004 -2.29968 -2.35967
upperback -7.76928 -2.79147 1.12744
thorax -4.75252 -1.15874 2.44018
lowerneck -0.548348 -22.2128 -17.0751
upperneck 21.6582 -31.6266 9.0103
head 11.2618 -15.2725 1.44816
rclavicle 2.42517e-014 5.56597e-015
rhumerus -20.3522 -71.9974 2.24539
rradius 12.2931
rwrist 62.0089
rhand -10.0522 14.9351
rfingers 7.12502
rthumb 15.9334 -14.4295
lclavicle 2.42517e-014 5.56597e-015
lhumerus -20.9241 14.2119 2.96269
lradius 17.3193
lwrist -48.27
lhand 3.73571 26.2316
lfingers 7.12502
lthumb 29.1633 53.9672
rfemur -49.4921 -24.7585 15.5363
rtibia 49.543
rfoot -61.1551 -31.7291
rtoes 53.4406
lfemur -21.1876 2.98054 -19.0836
ltibia 46.7652
lfoot -20.5793 27.6338
ltoes -19.8057
25
root -3.03421 16.1837 -32.022 23.2397 64.1709 15.1623
lowerback -4.6957 -2.35895 -4.22017
upperback -7.40753 -2.89325 1.19729
thorax -4.79203 -1.1271 3.57963
lowerneck -0.230114 -21.8239 -17.0975
upperneck 22.248 -31.2204 9.08646
head 11.3959 -15.0828 1.57478
rclavicle 3.52843e-014 3.18055e-015
rhumerus -31.4326 -75.9466 13.3819
rradius 12.1482
rwrist 67.2114
rhand -9.76188 15.2142
rfingers 7.12502
rthumb 16.2129 -14.1278
lclavicle 3.52843e-014 3.18055e-015
lhumerus -20.0228 12.754 2.24003
lradius 17.4587
lwrist -47.097
lhand 3.05303 25.9483
lfingers 7.12502
lthumb 28.5112 53.795
rfemur -46.9174 -22.4356 15.2718
rtibia 49.1548
rfoot -63.7799 -30.5111
rtoes 53.4516
lfemur -19.295 6.04416 -18.3524
ltibia 47.4879
lfoot -11.364 30.3831
ltoes -32.8703
26
root -3.02534 16.1786 -31.9109 23.1398 62.8996 14.5434
lowerback -4.98702 -2.19798 -3.40581
upperback -7.72396 -2.68133 0.871681
thorax -5.0274 -1.05784 2.78433
lowerneck -0.509948 -21.7947 -17.152
upperneck 22.9534 -31.2038 8.90313
head 11.6897 -15.0544 1.46043
rclavicle 9.17391e-014 2.70347e-014
rhumerus -30.4947 -69.7177 12.2112
rradius 12.346
rwrist 61.5886
rhand -9.28829 14.4344
rfingers 7.12502
rthumb 16.6689 -14.8699
lclavicle 9.17391e-014 2.70347e-014
lhumerus -18.4507 11.0942 2.40333
lradius 17.7182
lwrist -45.1242
lhand 2.78059 25.9559
lfingers 7.12502
lthumb 28.2509 53.846
rfemur -47.8002 -22.2049 16.3471
rtibia 48.8429
rfoot -63.7657 -31.5308
rtoes 52.7468
lfemur -20.778 6.57512 -18.3131
ltibia 48.6572
lfoot -8.32734 32.2644
ltoes -29.2068
27
root -3.04098 16.1776 -31.771 21.0988 61.5087 12.2823
lowerback -4.80134 -1.9873 -2.63862
upperback -7.74573 -2.41329 1.06538
thorax -5.19245 -0.957354 2.5675
lowerneck -0.974205 -21.7781 -17.1669
upperneck 23.3638 -31.1472 8.74861
head 11.8964 -15.0048 1.35058
rclavicle 3.27995e-015 -2.14687e-014
rhumerus -26.9426 -60.2291 7.98061
rradius 12.7674
rwrist 52.1333
rhand -8.72866 13.3455
rfingers 7.12502
rthumb 17.2076 -15.9126
lclavicle 3.27995e-015 -2.14687e-014
lhumerus -17.2051 12.0918 2.03943
lradius 17.6172
lwrist -46.0883
lhand 3.23672 25.8142
lfingers 7.12502
lthumb 28.6867 53.6314
rfemur -47.7925 -20.2684 17.6768
rtibia 48.5342
rfoot -64.5185 -32.5189
rtoes 52.2579
lfemur -21.7089 7.56746 -17.0819
ltibia 49.9512
lfoot -9.08826 33.6908
ltoes -15.9322
28
root -3.03529 16.1778 -31.5138 20.5424 59.8911 12.9273
lowerback -4.55152 -2.16125 -4.58004
upperback -7.34035 -2.64599 1.17166
thorax -4.81441 -0.99245 3.76253
lowerneck -1.21334 -21.4601 -17.0855
upperneck 23.7759 -30.7058 8.66626
head 12.0097 -14.7864 1.37148
rclavicle -6.4605e-015 1.11319e-014
rhumerus -25.9913 -52.8747 6.14507
rradius 13.1008
rwrist 45.5745
rhand -8.60639 12.7872
rfingers 7.12502
rthumb 17.3253 -16.4606
lclavicle -6.4605e-015 1.11319e-014
lhumerus -16.3219 13.327 1.34142
lradius 17.6316
lwrist -47.868
lhand 3.89492 24.8658
lfingers 7.12502
lthumb 29.3154 52.5749
rfemur -46.0154 -18.7052 17.1958
rtibia 48.4386
rfoot -64.7308 -32.9857
rtoes 51.6492
lfemur -20.7022 9.31036 -16.677
ltibia 51.0365
lfoot -9.66987 34.281
ltoes -4.90821
29
root -3.02662 16.1546 -31.4484 20.3653 58.444 12.0178
lowerback -4.74456 -1.95841 -3.14232
upperback -7.87858 -2.3886 0.762889
thorax -5.36358 -0.923895 2.53982
lowerneck -0.532977 -21.3904 -16.9626
upperneck 23.8878 -30.7517 8.73745
head 11.9322 -14.8287 1.45463
rclavicle -1.38155e-014 -1.82882e-014
rhumerus -25.191 -39.7574 2.58982
rradius 14.3582
rwrist 33.3322
rhand -8.19439 11.4018
rfingers 7.12502
rthumb 17.7218 -17.8106
lclavicle -1.38155e-014 -1.82882e-014
lhumerus -14.8396 11.6306 1.27259
lradius 18.0682
lwrist -46.6968
lhand 4.18427 25.2888
lfingers 7.12502
lthumb 29.5916 52.9492
rfemur -47.0864 -18.8313 18.4179
rtibia 48.2679
rfoot -62.4195 -34.6369
rtoes 50.2062
lfemur -22.6398 9.52077 -16.726
ltibia 52.5587
lfoot -14.6755 35.6835
ltoes 10.3402
30
root -3.01359 16.1423 -31.2467 19.4814 57.1099 11.7359
lowerback -4.78974 -1.92607 -3.68106
upperback -7.76776 -2.34744 0.644519
thorax -5.21062 -0.88505 2.71418
lowerneck 0.251131 -21.3438 -16.7288
upperneck 23.5829 -30.7975 8.85141
head 11.6618 -14.883 1.57451
rclavicle -8.54774e-015 1.74931e-014
rhumerus -30.1817 -46.8273 9.00605
rradius 13.6435
rwrist 41.4949
rhand -6.85664 12.3968
rfingers 7.12502
rthumb 19.0087 -16.6943
lclavicle -8.54774e-015 1.74931e-014
lhumerus -13.3278 9.64597 1.28251
lradius 18.4879
lwrist -44.8967
lhand 4.40923 26.6112
lfingers 7.12502
lthumb 29.8063 54.2334
rfemur -45.9927 -18.1513 18.8007
rtibia 48.3011
rfoot -61.7677 -34.6628
rtoes 49.3786
lfemur -22.3383 10.5853 -16.1532
ltibia 53.5956
lfoot -17.0215 36.2876
ltoes 18.9206
31
root -3.01216 16.1221 -31.0715 19.1629 55.4115 11.8208
lowerback -4.71706 -1.98041 -4.35111
upperback -7.64503 -2.42241 0.661425
thorax -5.0945 -0.894623 3.10592
lowerneck -0.0965048 -21.0932 -16.5993
upperneck 23.7086 -30.4135 8.78699
head 11.6835 -14.6908 1.58093
rclavicle -8.54774e-015 1.51076e-014
rhumerus -36.589 -55.2935 17.2906
rradius 12.863
rwrist 51.629
rhand -6.67573 12.9569
rfingers 7.12502
rthumb 19.1827 -16.1171
lclavicle -8.54774e-015 1.51076e-014
lhumerus -12.4403 9.75486 1.00465
lradius 18.506
lwrist -44.9652
lhand 2.82822 26.211
lfingers 7.12502
lthumb 28.2964 54.0936
rfemur -45.3782 -17.3691 18.9844
rtibia 48.2844
rfoot -60.427 -34.9284
rtoes 48.6914
lfemur -22.4997 11.6662 -16.0274
ltibia 54.8164
lfoot -20.3809 36.6499
ltoes 27.0403
32
root -3.01572 16.09 -30.8999 18.357 53.3966 11.2088
lowerback -5.32478 -2.15973 -5.32558
upperback -7.04912 -2.60198 1.25924
thorax -4.04865 -0.969747 4.23696
lowerneck -1.28562 -20.903 -16.3368
upperneck 23.6913 -29.8806 8.31614
head 11.6807 -14.4228 1.38862
rclavicle 1.5704e-014 -6.36111e-015
rhumerus -38.0002 -56.5398 19.3276
rradius 12.7894
rwrist 52.7408
rhand -6.44963 12.876
rfingers 7.12502
rthumb 19.4001 -16.1762
lclavicle 1.5704e-014 -6.36111e-015
lhumerus -12.3877 11.4322 0.803403
lradius 18.2859
lwrist -45.8434
lhand 3.4933 26.6272
lfingers 7.12502
lthumb 28.9318 54.4027
rfemur -45.0318 -16.8252 19.8079
rtibia 48.3203
rfoot -58.0506 -35.5986
rtoes 47.5038
lfemur -22.7251 13.1972 -15.4985
ltibia 56.1312
lfoot -23.755 36.4107
ltoes 33.4838
33
root -3.01322 16.0714 -30.7498 17.6052 52.2028 11.0226
lowerback -4.94464 -2.22601 -5.21691
upperback -6.9659 -2.72841 1.00866
thorax -4.174 -1.04611 3.92387
lowerneck -1.23036 -20.8606 -15.8685
upperneck 23.9147 -29.8415 8.07559
head 11.629 -14.3968 1.28677
rclavicle 3.07122e-014 2.78299e-014
rhumerus -41.6394 -56.7623 22.8994
rradius 12.722
rwrist 54.4523
rhand -6.39937 13.0576
rfingers 7.12502
rthumb 19.4484 -15.9897
lclavicle 3.07122e-014 2.78299e-014
lhumerus -11.1865 10.0835 0.511694
lradius 18.4912
lwrist -44.8147
lhand 3.65534 27.5869
lfingers 7.12502
lthumb 29.0866 55.3357
rfemur -44.1292 -16.9337 20.2741
rtibia 48.305
rfoot -56.3492 -35.732
rtoes 46.4497
lfemur -22.7682 13.33 -15.1052
ltibia 57.3792
lfoot -27.0938 36.3192
ltoes 36.0706
34
root -2.98521 16.0426 -30.7281 18.1785 50.2097 10.3195
lowerback -4.75492 -1.74256 -3.13602
upperback -8.13235 -2.13565 0.362628
thorax -5.6613 -0.808974 2.12643
lowerneck -0.366143 -20.6833 -16.0426
upperneck 24.5682 -29.8248 8.20043
head 11.7823 -14.4138 1.41806
rclavicle 1.10325e-014 8.74653e-015
rhumerus -46.4932 -56.6718 28.1303
rradius 12.7014
rwrist 57.6375
rhand -6.51468 12.9502
rfingers 7.12502
rthumb 19.3375 -16.1083
lclavicle 1.10325e-014 8.74653e-015
lhumerus -9.54329 8.45712 0.456743
lradius 18.6779
lwrist -44.359
lhand 3.97835 28.4318
lfingers 7.12502
lthumb 29.395 56.127
rfemur -46.1946 -18.2357 21.7529
rtibia 48.2739
rfoot -51.4041 -36.719
rtoes 44.129
lfemur -25.4131 13.1454 -15.8806
ltibia 59.141
lfoot -33.255 33.7763
ltoes 37.3773
35
root -2.98347 16.0348 -30.5514 16.9345 48.9049 9.57381
lowerback -4.58084 -1.90138 -3.43552
upperback -7.88907 -2.3486 0.695524
thorax -5.46445 -0.900319 2.64094
lowerneck -0.352352 -20.384 -16.1982
upperneck 24.7301 -29.4678 8.3859
head 11.8557 -14.2471 1.55748
rclavicle 4.84041e-014 2.62396e-014
rhumerus -59.2828 -62.3571 43.008
rradius 12.6708
rwrist 67.7713
rhand -6.93876 12.8158
rfingers 7.12502
rthumb 18.9297 -16.283
lclavicle 4.84041e-014 2.62396e-014
lhumerus -8.81071 8.35807 0.628347
lradius 18.8511
lwrist -45.0392
lhand 4.73251 28.7652
lfingers 7.12502
lthumb 30.1148 56.3316
rfemur -45.0767 -17.6766 22.4327
rtibia 48.2666
rfoot -50.7681 -36.6433
rtoes 43.1835
lfemur -25.1646 13.7191 -14.9575
ltibia 60.3642
lfoot -33.6968 32.8498
ltoes 36.2886
